{
    "asset" : {
        "generator" : "Khronos glTF Blender I/O v1.2.75",
        "version" : "2.0"
    },
    "scene" : 0,
    "scenes" : [
        {
            "name" : "Scene",
            "nodes" : [
                0
            ]
        }
    ],
    "nodes" : [
        {
            "mesh" : 0,
            "name" : "body"
        }
    ],
    "materials" : [
        {
            "doubleSided" : true,
            "emissiveFactor" : [
                1,
                0.008436666801571846,
                0
            ],
            "name" : "carmaterial_red.001",
            "pbrMetallicRoughness" : {
                "baseColorFactor" : [
                    0.7648299932479858,
                    0,
                    0,
                    1
                ],
                "metallicFactor" : 0,
                "roughnessFactor" : 0.49272727966308594
            }
        },
        {
            "doubleSided" : true,
            "emissiveFactor" : [
                0,
                0.8688655495643616,
                1
            ],
            "name" : "windows.001",
            "pbrMetallicRoughness" : {
                "baseColorFactor" : [
                    0.2173001766204834,
                    0.7464198470115662,
                    1,
                    1
                ],
                "metallicFactor" : 0,
                "roughnessFactor" : 0.5
            }
        },
        {
            "doubleSided" : true,
            "emissiveFactor" : [
                1,
                0.9276410341262817,
                0.5905677676200867
            ],
            "name" : "lights.001",
            "pbrMetallicRoughness" : {
                "baseColorFactor" : [
                    0.800000011920929,
                    0.800000011920929,
                    0.800000011920929,
                    1
                ],
                "metallicFactor" : 0,
                "roughnessFactor" : 0.5
            }
        },
        {
            "doubleSided" : true,
            "emissiveFactor" : [
                0,
                0,
                0
            ],
            "name" : "metal.001",
            "pbrMetallicRoughness" : {
                "baseColorFactor" : [
                    0.4508971869945526,
                    0.4508971869945526,
                    0.4508971869945526,
                    1
                ],
                "metallicFactor" : 0.47090908885002136,
                "roughnessFactor" : 0.2054545283317566
            }
        },
        {
            "doubleSided" : true,
            "emissiveFactor" : [
                0.6184816360473633,
                0,
                0.03189694508910179
            ],
            "name" : "lights.red.001",
            "pbrMetallicRoughness" : {
                "baseColorFactor" : [
                    0.8000000715255737,
                    0,
                    0.011620125733315945,
                    1
                ],
                "metallicFactor" : 0,
                "roughnessFactor" : 0.5
            }
        },
        {
            "doubleSided" : true,
            "emissiveFactor" : [
                1,
                0.3829984962940216,
                0
            ],
            "name" : "lights.orange.001",
            "pbrMetallicRoughness" : {
                "baseColorFactor" : [
                    0.8000000715255737,
                    0.1337665170431137,
                    0,
                    1
                ],
                "metallicFactor" : 0,
                "roughnessFactor" : 0.5
            }
        }
    ],
    "meshes" : [
        {
            "name" : "body",
            "primitives" : [
                {
                    "attributes" : {
                        "POSITION" : 0,
                        "NORMAL" : 1,
                        "TEXCOORD_0" : 2,
                        "COLOR_0" : 3
                    },
                    "indices" : 4,
                    "material" : 0
                },
                {
                    "attributes" : {
                        "POSITION" : 5,
                        "NORMAL" : 6,
                        "TEXCOORD_0" : 7,
                        "COLOR_0" : 8
                    },
                    "indices" : 9,
                    "material" : 1
                },
                {
                    "attributes" : {
                        "POSITION" : 10,
                        "NORMAL" : 11,
                        "TEXCOORD_0" : 12,
                        "COLOR_0" : 13
                    },
                    "indices" : 14,
                    "material" : 2
                },
                {
                    "attributes" : {
                        "POSITION" : 15,
                        "NORMAL" : 16,
                        "TEXCOORD_0" : 17,
                        "COLOR_0" : 18
                    },
                    "indices" : 19,
                    "material" : 3
                },
                {
                    "attributes" : {
                        "POSITION" : 20,
                        "NORMAL" : 21,
                        "TEXCOORD_0" : 22,
                        "COLOR_0" : 23
                    },
                    "indices" : 24,
                    "material" : 4
                },
                {
                    "attributes" : {
                        "POSITION" : 25,
                        "NORMAL" : 26,
                        "TEXCOORD_0" : 27,
                        "COLOR_0" : 28
                    },
                    "indices" : 29,
                    "material" : 5
                }
            ]
        }
    ],
    "accessors" : [
        {
            "bufferView" : 0,
            "componentType" : 5126,
            "count" : 514,
            "max" : [
                0.8986650109291077,
                1.3700875043869019,
                1.853386402130127
            ],
            "min" : [
                -0.8986650109291077,
                5.960464477539063e-08,
                -1.2975419759750366
            ],
            "type" : "VEC3"
        },
        {
            "bufferView" : 1,
            "componentType" : 5126,
            "count" : 514,
            "type" : "VEC3"
        },
        {
            "bufferView" : 2,
            "componentType" : 5126,
            "count" : 514,
            "type" : "VEC2"
        },
        {
            "bufferView" : 3,
            "componentType" : 5126,
            "count" : 514,
            "type" : "VEC4"
        },
        {
            "bufferView" : 4,
            "componentType" : 5123,
            "count" : 1128,
            "type" : "SCALAR"
        },
        {
            "bufferView" : 5,
            "componentType" : 5126,
            "count" : 18,
            "max" : [
                0.7870654463768005,
                1.2901732921600342,
                1.1751322746276855
            ],
            "min" : [
                -0.7870654463768005,
                0.7567952871322632,
                -1.0445321798324585
            ],
            "type" : "VEC3"
        },
        {
            "bufferView" : 6,
            "componentType" : 5126,
            "count" : 18,
            "type" : "VEC3"
        },
        {
            "bufferView" : 7,
            "componentType" : 5126,
            "count" : 18,
            "type" : "VEC2"
        },
        {
            "bufferView" : 8,
            "componentType" : 5126,
            "count" : 18,
            "type" : "VEC4"
        },
        {
            "bufferView" : 9,
            "componentType" : 5123,
            "count" : 24,
            "type" : "SCALAR"
        },
        {
            "bufferView" : 10,
            "componentType" : 5126,
            "count" : 80,
            "max" : [
                0.8036870360374451,
                0.4767518937587738,
                1.7719882726669312
            ],
            "min" : [
                -0.8036870956420898,
                0.34422144293785095,
                1.70718252658844
            ],
            "type" : "VEC3"
        },
        {
            "bufferView" : 11,
            "componentType" : 5126,
            "count" : 80,
            "type" : "VEC3"
        },
        {
            "bufferView" : 12,
            "componentType" : 5126,
            "count" : 80,
            "type" : "VEC2"
        },
        {
            "bufferView" : 13,
            "componentType" : 5126,
            "count" : 80,
            "type" : "VEC4"
        },
        {
            "bufferView" : 14,
            "componentType" : 5123,
            "count" : 132,
            "type" : "SCALAR"
        },
        {
            "bufferView" : 15,
            "componentType" : 5126,
            "count" : 20,
            "max" : [
                0.5336716771125793,
                0.31014880537986755,
                1.859839677810669
            ],
            "min" : [
                -0.5336716771125793,
                0.07351070642471313,
                1.760968804359436
            ],
            "type" : "VEC3"
        },
        {
            "bufferView" : 16,
            "componentType" : 5126,
            "count" : 20,
            "type" : "VEC3"
        },
        {
            "bufferView" : 17,
            "componentType" : 5126,
            "count" : 20,
            "type" : "VEC2"
        },
        {
            "bufferView" : 18,
            "componentType" : 5126,
            "count" : 20,
            "type" : "VEC4"
        },
        {
            "bufferView" : 19,
            "componentType" : 5123,
            "count" : 30,
            "type" : "SCALAR"
        },
        {
            "bufferView" : 20,
            "componentType" : 5126,
            "count" : 60,
            "max" : [
                0.8570095300674438,
                0.5644258260726929,
                -1.054854154586792
            ],
            "min" : [
                -0.8570095300674438,
                0.45100143551826477,
                -1.1522802114486694
            ],
            "type" : "VEC3"
        },
        {
            "bufferView" : 21,
            "componentType" : 5126,
            "count" : 60,
            "type" : "VEC3"
        },
        {
            "bufferView" : 22,
            "componentType" : 5126,
            "count" : 60,
            "type" : "VEC2"
        },
        {
            "bufferView" : 23,
            "componentType" : 5126,
            "count" : 60,
            "type" : "VEC4"
        },
        {
            "bufferView" : 24,
            "componentType" : 5123,
            "count" : 96,
            "type" : "SCALAR"
        },
        {
            "bufferView" : 25,
            "componentType" : 5126,
            "count" : 160,
            "max" : [
                0.8570095896720886,
                0.7051782608032227,
                1.7602479457855225
            ],
            "min" : [
                -0.8570095896720886,
                0.3751985728740692,
                -1.1395994424819946
            ],
            "type" : "VEC3"
        },
        {
            "bufferView" : 26,
            "componentType" : 5126,
            "count" : 160,
            "type" : "VEC3"
        },
        {
            "bufferView" : 27,
            "componentType" : 5126,
            "count" : 160,
            "type" : "VEC2"
        },
        {
            "bufferView" : 28,
            "componentType" : 5126,
            "count" : 160,
            "type" : "VEC4"
        },
        {
            "bufferView" : 29,
            "componentType" : 5123,
            "count" : 228,
            "type" : "SCALAR"
        }
    ],
    "bufferViews" : [
        {
            "buffer" : 0,
            "byteLength" : 6168,
            "byteOffset" : 0
        },
        {
            "buffer" : 0,
            "byteLength" : 6168,
            "byteOffset" : 6168
        },
        {
            "buffer" : 0,
            "byteLength" : 4112,
            "byteOffset" : 12336
        },
        {
            "buffer" : 0,
            "byteLength" : 8224,
            "byteOffset" : 16448
        },
        {
            "buffer" : 0,
            "byteLength" : 2256,
            "byteOffset" : 24672
        },
        {
            "buffer" : 0,
            "byteLength" : 216,
            "byteOffset" : 26928
        },
        {
            "buffer" : 0,
            "byteLength" : 216,
            "byteOffset" : 27144
        },
        {
            "buffer" : 0,
            "byteLength" : 144,
            "byteOffset" : 27360
        },
        {
            "buffer" : 0,
            "byteLength" : 288,
            "byteOffset" : 27504
        },
        {
            "buffer" : 0,
            "byteLength" : 48,
            "byteOffset" : 27792
        },
        {
            "buffer" : 0,
            "byteLength" : 960,
            "byteOffset" : 27840
        },
        {
            "buffer" : 0,
            "byteLength" : 960,
            "byteOffset" : 28800
        },
        {
            "buffer" : 0,
            "byteLength" : 640,
            "byteOffset" : 29760
        },
        {
            "buffer" : 0,
            "byteLength" : 1280,
            "byteOffset" : 30400
        },
        {
            "buffer" : 0,
            "byteLength" : 264,
            "byteOffset" : 31680
        },
        {
            "buffer" : 0,
            "byteLength" : 240,
            "byteOffset" : 31944
        },
        {
            "buffer" : 0,
            "byteLength" : 240,
            "byteOffset" : 32184
        },
        {
            "buffer" : 0,
            "byteLength" : 160,
            "byteOffset" : 32424
        },
        {
            "buffer" : 0,
            "byteLength" : 320,
            "byteOffset" : 32584
        },
        {
            "buffer" : 0,
            "byteLength" : 60,
            "byteOffset" : 32904
        },
        {
            "buffer" : 0,
            "byteLength" : 720,
            "byteOffset" : 32964
        },
        {
            "buffer" : 0,
            "byteLength" : 720,
            "byteOffset" : 33684
        },
        {
            "buffer" : 0,
            "byteLength" : 480,
            "byteOffset" : 34404
        },
        {
            "buffer" : 0,
            "byteLength" : 960,
            "byteOffset" : 34884
        },
        {
            "buffer" : 0,
            "byteLength" : 192,
            "byteOffset" : 35844
        },
        {
            "buffer" : 0,
            "byteLength" : 1920,
            "byteOffset" : 36036
        },
        {
            "buffer" : 0,
            "byteLength" : 1920,
            "byteOffset" : 37956
        },
        {
            "buffer" : 0,
            "byteLength" : 1280,
            "byteOffset" : 39876
        },
        {
            "buffer" : 0,
            "byteLength" : 2560,
            "byteOffset" : 41156
        },
        {
            "buffer" : 0,
            "byteLength" : 456,
            "byteOffset" : 43716
        }
    ],
    "buffers" : [
        {
            "byteLength" : 44172,
            "uri" : "data:application/octet-stream;base64,"
        }
    ]
}
